<svg viewBox="0 0 20 20"><path d="m0 0h20v20h-20z" fill="none"></path><path class="icon_path" d="m16.379 11.694c-.458-.194-.983-.019-1.241.406-.252.416-.553.8-.895 1.142-.544.543-1.191.983-1.908 1.286-.717.304-1.504.472-2.335.472s-1.618-.168-2.335-.471-1.364-.743-1.908-1.286c-.342-.343-.644-.726-.895-1.142-.257-.425-.783-.6-1.24-.407-.552.233-.793.906-.484 1.42.338.563.744 1.081 1.205 1.543.723.722 1.584 1.308 2.542 1.714.664.28 1.375.467 2.115.56v2.069c0 .552.448 1 1 1s1-.448 1-1v-2.069c.74-.093 1.451-.279 2.114-.559h.001c.958-.406 1.819-.991 2.542-1.713l.001-.001c.461-.462.866-.979 1.205-1.542.308-.516.068-1.188-.484-1.422zm-6.379 1.306c2.209 0 4-1.791 4-4v-5c0-2.209-1.791-4-4-4s-4 1.791-4 4v5c0 2.209 1.791 4 4 4zm-2-9c0-1.103.897-2 2-2s2 .897 2 2v5c0 1.103-.897 2-2 2s-2-.897-2-2z"></path></svg>